<svg t="1707029783192" class="icon" viewBox="0 0 1024 1024" version="1.1" xmlns="http://www.w3.org/2000/svg" p-id="16951" width="200" height="200"><path d="M363.576889 160.995556c60.871111 0 114.858667 29.468444 148.48 74.865777a184.149333 184.149333 0 0 1 146.545778-74.865777h252.416a7.964444 7.964444 0 0 1 7.964444 7.736888v612.124445a7.964444 7.964444 0 0 1-7.736889 7.964444H623.274667c-38.513778 0-70.257778 28.899556-74.752 66.104889l-0.113778 1.137778a8.817778 8.817778 0 0 1-8.817778 7.964444h-55.239111a8.760889 8.760889 0 0 1-8.704-7.623111l-0.056889-0.284444a75.264 75.264 0 0 0-73.671111-67.299556H112.981333a7.964444 7.964444 0 0 1-7.964444-7.736889V168.96a7.964444 7.964444 0 0 1 7.736889-7.964444h250.88z m0 72.021333h-186.595556V716.8h223.744c26.510222 0 51.370667 6.997333 72.817778 19.228444l0.853333 0.455112 1.592889 0.967111V343.381333a112.298667 112.298667 0 0 0-108.714666-110.364444h-3.697778z m483.441778 0h-186.595556c-61.44 0-111.388444 49.208889-112.412444 110.364444v394.126223l1.592889-0.967112c20.764444-11.946667 44.657778-19.057778 70.200888-19.683555H847.075556V233.016889z"  p-id="16952"></path></svg>